<svg width="43" height="43" viewBox="0 0 43 43" fill="none" xmlns="http://www.w3.org/2000/svg">
<path d="M5.375 23.4908C5.375 36.2316 14.8509 39.4168 19.5888 39.4168C22.0149 39.4168 25.5278 38.7775 28.6667 36.9258M33.5413 32.2501C34.9413 30.0172 35.8333 27.1475 35.8333 23.4908C35.8333 15.3803 30.7545 9.58781 26.1625 6.26678C24.0868 4.76569 21.5 6.41429 21.5 8.97585V9.55569C21.5 12.139 20.4139 16.8544 17.3959 18.8157C15.855 19.817 14.1909 18.3183 14.0037 16.4903L13.8499 14.9892C13.6711 13.2441 11.8938 12.1847 10.4991 13.2487C9.29506 14.1672 8.06499 15.4172 7.11191 17.021" stroke="#578E7E" stroke-width="5" stroke-linecap="round"/>
<path d="M14.3333 33.0463C14.3333 38.1425 18.7925 39.4165 21.0221 39.4165C22.973 39.4165 26.8749 38.1425 26.8749 33.0463C26.8749 31.0737 25.8191 29.7419 24.7973 28.9735C24.0842 28.4372 23.0816 28.9188 22.8363 29.7767C22.5167 30.8948 21.3616 31.5977 20.7732 30.5942C20.2352 29.6767 20.2352 28.3005 20.2352 27.4722C20.2352 26.3316 19.0882 25.5933 18.1654 26.2637C16.3157 27.6079 14.3333 29.8876 14.3333 33.0463Z" stroke="#578E7E" stroke-width="5"/>
</svg>
