<svg width="42" height="36" viewBox="0 0 42 36" fill="none" xmlns="http://www.w3.org/2000/svg">
<path d="M28 33.75V30.25C28 28.3935 27.2625 26.613 25.9497 25.3003C24.637 23.9875 22.8565 23.25 21 23.25H8.75C6.89348 23.25 5.11301 23.9875 3.80025 25.3003C2.4875 26.613 1.75 28.3935 1.75 30.25V33.75M31.5 11L40.25 19.75M40.25 11L31.5 19.75M21.875 9.25C21.875 13.116 18.741 16.25 14.875 16.25C11.009 16.25 7.875 13.116 7.875 9.25C7.875 5.38401 11.009 2.25 14.875 2.25C18.741 2.25 21.875 5.38401 21.875 9.25Z" stroke="#1E1E1E" stroke-width="4" stroke-linecap="round" stroke-linejoin="round"/>
<path d="M28 33.75V30.25C28 28.3935 27.2625 26.613 25.9497 25.3003C24.637 23.9875 22.8565 23.25 21 23.25H8.75C6.89348 23.25 5.11301 23.9875 3.80025 25.3003C2.4875 26.613 1.75 28.3935 1.75 30.25V33.75M31.5 11L40.25 19.75M40.25 11L31.5 19.75M21.875 9.25C21.875 13.116 18.741 16.25 14.875 16.25C11.009 16.25 7.875 13.116 7.875 9.25C7.875 5.38401 11.009 2.25 14.875 2.25C18.741 2.25 21.875 5.38401 21.875 9.25Z" stroke="#578E7E" stroke-width="4" stroke-linecap="round" stroke-linejoin="round"/>
</svg>
