<svg width="35" height="39" viewBox="0 0 35 39" fill="none" xmlns="http://www.w3.org/2000/svg">
<path d="M2.125 9.24984H5.54167M5.54167 9.24984H32.875M5.54167 9.24984V33.1665C5.54167 34.0727 5.90164 34.9417 6.54239 35.5824C7.18313 36.2232 8.05218 36.5832 8.95833 36.5832H26.0417C26.9478 36.5832 27.8169 36.2232 28.4576 35.5824C29.0984 34.9417 29.4583 34.0727 29.4583 33.1665V9.24984M10.6667 9.24984V5.83317C10.6667 4.92701 11.0266 4.05797 11.6674 3.41722C12.3081 2.77647 13.1772 2.4165 14.0833 2.4165H20.9167C21.8228 2.4165 22.6919 2.77647 23.3326 3.41722C23.9734 4.05797 24.3333 4.92701 24.3333 5.83317V9.24984M14.0833 17.7915V28.0415M20.9167 17.7915V28.0415" stroke="#1E1E1E" stroke-width="4" stroke-linecap="round" stroke-linejoin="round"/>
<path d="M2.125 9.24984H5.54167M5.54167 9.24984H32.875M5.54167 9.24984V33.1665C5.54167 34.0727 5.90164 34.9417 6.54239 35.5824C7.18313 36.2232 8.05218 36.5832 8.95833 36.5832H26.0417C26.9478 36.5832 27.8169 36.2232 28.4576 35.5824C29.0984 34.9417 29.4583 34.0727 29.4583 33.1665V9.24984M10.6667 9.24984V5.83317C10.6667 4.92701 11.0266 4.05797 11.6674 3.41722C12.3081 2.77647 13.1772 2.4165 14.0833 2.4165H20.9167C21.8228 2.4165 22.6919 2.77647 23.3326 3.41722C23.9734 4.05797 24.3333 4.92701 24.3333 5.83317V9.24984M14.0833 17.7915V28.0415M20.9167 17.7915V28.0415" stroke="#578E7E" stroke-width="4" stroke-linecap="round" stroke-linejoin="round"/>
</svg>
