<svg width="47" height="43" viewBox="0 0 47 43" fill="none" xmlns="http://www.w3.org/2000/svg">
<path fill-rule="evenodd" clip-rule="evenodd" d="M40.5634 31.7703L40.5795 16.245L29.5299 5.23016C26.1952 1.91026 20.8043 1.91026 17.4699 5.23016L6.44434 16.2182V31.7622C6.45321 36.4635 10.2708 40.2677 14.9721 40.2605H32.0357C36.7337 40.268 40.55 36.4683 40.5634 31.7703Z" stroke="#578E7E" stroke-width="5" stroke-linecap="round" stroke-linejoin="round"/>
<path d="M42.5924 5.4685C42.5924 4.35839 41.6924 3.4585 40.5824 3.4585C39.4723 3.4585 38.5724 4.35839 38.5724 5.4685H42.5924ZM40.5824 16.2449H38.5724C38.5724 16.779 38.7849 17.2911 39.1633 17.6682L40.5824 16.2449ZM43.521 22.0125C44.307 22.7964 45.5798 22.7942 46.3634 22.0082C47.1473 21.2219 47.1454 19.9494 46.3591 19.1655L43.521 22.0125ZM7.86365 17.6414C8.6498 16.8578 8.65176 15.585 7.86799 14.7989C7.08425 14.0127 5.81157 14.0108 5.02542 14.7945L7.86365 17.6414ZM0.640941 19.1655C-0.14521 19.9494 -0.147167 21.2219 0.636599 22.0082C1.42034 22.7942 2.69302 22.7964 3.47917 22.0125L0.640941 19.1655ZM26.8501 40.2603C26.8501 41.3704 27.75 42.2703 28.8601 42.2703C29.9701 42.2703 30.8701 41.3704 30.8701 40.2603H26.8501ZM16.1301 40.2603C16.1301 41.3704 17.03 42.2703 18.1401 42.2703C19.2501 42.2703 20.1501 41.3704 20.1501 40.2603H16.1301ZM38.5724 5.4685V16.2449H42.5924V5.4685H38.5724ZM39.1633 17.6682L43.521 22.0125L46.3591 19.1655L42.0014 14.8213L39.1633 17.6682ZM5.02542 14.7945L0.640941 19.1655L3.47917 22.0125L7.86365 17.6414L5.02542 14.7945ZM30.8701 40.2603V35.4899H26.8501V40.2603H30.8701ZM30.8701 35.4899C30.8701 31.4196 27.5704 28.1199 23.5001 28.1199V32.1399C25.3503 32.1399 26.8501 33.6397 26.8501 35.4899H30.8701ZM23.5001 28.1199C19.4297 28.1199 16.1301 31.4196 16.1301 35.4899H20.1501C20.1501 33.6397 21.6498 32.1399 23.5001 32.1399V28.1199ZM16.1301 35.4899V40.2603H20.1501V35.4899H16.1301Z" fill="#578E7E"/>
</svg>
