<svg width="33" height="11" viewBox="0 0 33 11" fill="none" xmlns="http://www.w3.org/2000/svg">
<path d="M9.09995 5.4998C9.09995 7.54326 7.4434 9.1998 5.39995 9.1998C3.3565 9.1998 1.69995 7.54326 1.69995 5.4998C1.69995 3.45635 3.3565 1.7998 5.39995 1.7998C7.4434 1.7998 9.09995 3.45635 9.09995 5.4998Z" fill="#578E7E"/>
<path d="M20.2 5.4998C20.2 7.54326 18.5434 9.1998 16.5 9.1998C14.4565 9.1998 12.8 7.54326 12.8 5.4998C12.8 3.45635 14.4565 1.7998 16.5 1.7998C18.5434 1.7998 20.2 3.45635 20.2 5.4998Z" fill="#578E7E"/>
<path d="M31.3 5.4998C31.3 7.54326 29.6434 9.1998 27.6 9.1998C25.5565 9.1998 23.9 7.54326 23.9 5.4998C23.9 3.45635 25.5565 1.7998 27.6 1.7998C29.6434 1.7998 31.3 3.45635 31.3 5.4998Z" fill="#578E7E"/>
<path d="M9.09995 5.4998C9.09995 7.54326 7.4434 9.1998 5.39995 9.1998C3.3565 9.1998 1.69995 7.54326 1.69995 5.4998C1.69995 3.45635 3.3565 1.7998 5.39995 1.7998C7.4434 1.7998 9.09995 3.45635 9.09995 5.4998Z" stroke="#578E7E" stroke-width="2"/>
<path d="M20.2 5.4998C20.2 7.54326 18.5434 9.1998 16.5 9.1998C14.4565 9.1998 12.8 7.54326 12.8 5.4998C12.8 3.45635 14.4565 1.7998 16.5 1.7998C18.5434 1.7998 20.2 3.45635 20.2 5.4998Z" stroke="#578E7E" stroke-width="2"/>
<path d="M31.3 5.4998C31.3 7.54326 29.6434 9.1998 27.6 9.1998C25.5565 9.1998 23.9 7.54326 23.9 5.4998C23.9 3.45635 25.5565 1.7998 27.6 1.7998C29.6434 1.7998 31.3 3.45635 31.3 5.4998Z" stroke="#578E7E" stroke-width="2"/>
</svg>
