<svg width="44" height="44" viewBox="0 0 44 44" fill="none" xmlns="http://www.w3.org/2000/svg">
<path d="M10.6751 13.9669C6.00173 15.0243 3.66504 15.553 3.1091 17.3407C2.55316 19.1284 4.14618 20.9913 7.33219 24.7168L8.15645 25.6807C9.06181 26.7394 9.51449 27.2687 9.71813 27.9237C9.92179 28.5786 9.85335 29.2848 9.71646 30.6975L9.59186 31.9834C9.11017 36.9542 8.86932 39.4396 10.3248 40.5444C11.7802 41.6493 13.9681 40.6419 18.3438 38.6273L19.4758 38.106C20.7192 37.5335 21.3409 37.2472 22 37.2472C22.6591 37.2472 23.2808 37.5335 24.5241 38.106L25.6561 38.6273C30.0318 40.6419 32.2197 41.6493 33.6753 40.5444C35.1307 39.4396 34.8898 36.9542 34.4081 31.9834M36.6678 24.7168C39.8539 20.9913 41.4468 19.1284 40.8909 17.3407C40.335 15.553 37.9982 15.0243 33.3249 13.9669L32.1158 13.6933C30.7877 13.3928 30.1238 13.2426 29.5907 12.8379C29.0573 12.4331 28.7155 11.8197 28.0315 10.5928L27.4089 9.47591C25.0024 5.15863 23.7991 3 22 3C20.2009 3 18.9976 5.15865 16.591 9.47593" stroke="#578E7E" stroke-width="5" stroke-linecap="round"/>
</svg>
